<svg width="18" height="18" viewBox="0 0 18 18" fill="none" xmlns="http://www.w3.org/2000/svg">
<path d="M15.3015 2.61725C13.6208 0.928011 11.3799 0 8.99357 0C4.07982 0 0.0769778 4.00285 0.0727012 8.91661C0.0727012 10.4904 0.483249 12.0214 1.26158 13.377L0 18L4.72986 16.7598C6.0342 17.4697 7.50105 17.846 8.99357 17.846H8.99784C13.9116 17.846 17.9144 13.8432 17.9187 8.92516C17.9144 6.54312 16.9864 4.30221 15.3015 2.61725ZM8.99357 16.3364C7.65929 16.3364 6.35494 15.9772 5.21738 15.3015L4.94796 15.139L2.14255 15.8746L2.89094 13.1376L2.7156 12.8553C1.97149 11.675 1.58232 10.3108 1.58232 8.91233C1.58232 4.8325 4.90947 1.50535 8.99784 1.50535C10.9779 1.50535 12.8382 2.2794 14.2409 3.67783C15.6393 5.08054 16.4091 6.94084 16.4091 8.92088C16.4048 13.0135 13.0777 16.3364 8.99357 16.3364ZM13.0606 10.7855C12.8382 10.6743 11.7434 10.1354 11.5381 10.0584C11.3328 9.98575 11.1832 9.94726 11.0378 10.1696C10.8881 10.392 10.4604 10.8967 10.3321 11.0421C10.2038 11.1917 10.0713 11.2088 9.84888 11.0976C9.6265 10.9865 8.90804 10.7512 8.057 9.99002C7.39414 9.39986 6.94938 8.66857 6.81681 8.44619C6.68851 8.22381 6.80398 8.10406 6.91517 7.99287C7.01353 7.89451 7.13755 7.732 7.24874 7.60371C7.35993 7.47541 7.39842 7.38133 7.47112 7.23165C7.54382 7.08197 7.50961 6.95367 7.45401 6.84248C7.39842 6.73129 6.95366 5.63222 6.76549 5.18746C6.58588 4.75125 6.40198 4.81112 6.26513 4.80684C6.13684 4.79829 5.98716 4.79829 5.83748 4.79829C5.6878 4.79829 5.44831 4.85388 5.24304 5.07627C5.03777 5.29865 4.46471 5.83749 4.46471 6.93656C4.46471 8.03564 5.26442 9.09195 5.37561 9.24163C5.4868 9.39131 6.9451 11.6408 9.18174 12.6073C9.71203 12.8382 10.1269 12.9751 10.4519 13.0777C10.9864 13.2488 11.4697 13.2231 11.8546 13.1675C12.2822 13.1033 13.1718 12.6287 13.3599 12.1069C13.5438 11.5852 13.5438 11.1404 13.4882 11.0463C13.4326 10.9522 13.2829 10.8967 13.0606 10.7855Z" fill="black"/>
</svg>
